<svg id="SvgjsSvg1001" width="288" height="288" xmlns="http://www.w3.org/2000/svg" version="1.1" xmlns:xlink="http://www.w3.org/1999/xlink" xmlns:svgjs="http://svgjs.com/svgjs"><rect id="SvgjsRect1012" width="288" height="288" rx="20" ry="20" transform="matrix(0.7916,0,0,0.7916,30.009600000000006,30.009600000000006)" fill="#fffc00"></rect><defs id="SvgjsDefs1002"></defs><g id="SvgjsG1008" transform="matrix(0.72,0,0,0.72,40.31582154624165,40.28309277385473)"><svg xmlns="http://www.w3.org/2000/svg" version="1.0" viewBox="0 0 512 512" width="288" height="288"><g transform="matrix(.1 0 0 -.1 0 512)" fill="#387adf" class="color000 svgShape"><path d="M145 5105c-22-8-59-34-82-58-103-109-78-266 55-349 35-22 49-23 267-28l230-5 65-31c75-36 142-98 176-165 19-39 604-2289 604-2326 0-5-113-74-251-153-201-114-263-154-308-200-103-104-158-252-148-395 16-219 143-387 355-468l57-22 1725-3c1346-2 1735 0 1770 10 85 23 160 124 160 214 0 87-76 191-155 213-28 8-537 11-1728 11l-1688 0-24 25c-29 28-32 64-8 94 10 11 142 90 293 176l275 155 636 0c611 0 640 1 702 20 70 22 149 77 188 131 12 17 33 57 45 88l23 56 443 5c378 5 450 8 493 23 129 43 255 152 312 269 21 45 98 326 262 969 127 498 231 913 231 923 0 9-11 28-25 41l-24 25-1855 0-1854 0-12 53c-7 28-25 93-41 142-94 295-352 516-659 565-101 15-456 12-505-5zm948-451c20-31 45-79 56-107 15-38 621-2382 621-2403 0-2 10-12 22-24 21-20 31-20 725-20l704 0-15-28c-8-16-29-43-47-60-63-62-66-62-771-62-573 0-642-2-671-16-131-68-569-323-596-348-91-84-95-224-8-314 70-73-98-66 1804-72 1608-5 1713-6 1730-22 22-23 22-83 0-106-17-16-118-17-1735-17l-1717 0-57 23c-200 81-292 317-198 509 46 94 104 138 394 302 150 84 267 157 279 173l20 26-302 1184c-261 1022-307 1194-341 1263l-40 79 47 48c26 26 50 48 54 48 4 0 23-25 42-56zm901-481c11-52 76-486 76-504 0-18-13-19-264-19l-264 0-11 43c-6 23-36 139-66 258-30 118-57 223-61 232-6 16 17 17 289 17l295 0 6-27zm740-40c3-38 8-122 11-188 3-66 8-159 11-207l6-88-160 0c-146 0-161-2-186-21-19-15-26-30-26-54 0-24 7-39 26-54 25-19 40-21 190-21l164 0 1-57c0-32 6-156 12-276l12-217-230 0-231 0-78 513c-43 281-86 563-96 625l-17 112 293 0 292 0 6-67zm736 50c0-50-21-454-26-490l-5-43-263 0-264 0-6 83c-3 45-8 141-11 212-3 72-8 158-11 193l-6 62 296 0c275 0 296-1 296-17zm737-5c-3-13-22-137-43-275l-38-253-267 0-267 0 4 58c6 83 24 433 24 465l0 27 296 0 296 0-5-22zm672-248c-38-149-69-273-69-275 0-3-119-5-265-5-147 0-265 4-265 9 0 5 18 124 40 266 22 142 40 261 40 266 0 5 130 9 294 9l294 0-69-270zm-2779-435c0-3 18-122 40-265 22-143 40-264 40-270 0-6-78-10-230-10l-229 0-10 38c-5 20-35 136-66 257-31 121-58 228-61 238-5 16 12 17 255 17 144 0 261-2 261-5zm1323-212c-6-120-12-244-12-276l-1-57-232 2-233 3-12 215c-6 118-11 241-12 273l-1 57 258 0 257 0-12-217zm677 207c0-6-18-127-40-270-22-143-40-262-40-265 0-3-103-5-230-5l-230 0 0 23c0 51 22 503 26 515 4 16 514 18 514 2zm666-7c-3-10-31-117-61-238-31-121-61-237-66-257l-10-38-230 0-231 0 5 23c3 12 22 136 43 275l38 252 259 0c241 0 258-1 253-17zm-2522-935c21-139 40-263 43-275l5-23-195 0c-178 0-196 2-201 18-3 9-33 125-66 257-34 132-64 248-66 258-5 16 10 17 219 17l223 0 38-252zm560 210c5-37 26-441 26-490 0-17-16-18-195-18-107 0-195 4-195 9 0 5-18 124-40 266-22 142-40 261-40 266 0 5 99 9 219 9l220 0 5-42zm592-45c-3-49-8-142-11-208-3-66-8-150-11-187l-6-68-194 0-194 0 0 27c0 32-18 382-24 466l-4 57 225 0 225 0-6-87zm594 68c0-18-65-452-76-503l-6-28-194 0-194 0 5 78c6 81 25 436 25 459 0 10 44 13 220 13 208 0 220-1 220-19zm596 2c-3-10-19-74-36-143-17-69-40-145-51-169-61-139-206-226-366-219l-69 3 42 270c23 149 42 271 43 273 1 1 100 2 222 2 205 0 220-1 215-17zM1637 740c-105-27-206-112-254-215-24-52-28-72-28-150 0-77 4-99 28-151 36-77 113-154 192-191 52-24 73-28 150-28 80 0 97 3 155 31 82 39 144 101 184 184 28 58 31 75 31 155 0 80-3 97-31 155-62 129-178 208-316 215-40 3-90 0-111-5zM4207 740c-105-27-206-112-254-215-24-52-28-72-28-150 0-77 4-99 28-151 36-77 113-154 192-191 52-24 73-28 150-28 80 0 97 3 155 31 82 39 144 101 184 184 28 58 31 75 31 155 0 80-3 97-31 155-62 129-178 208-316 215-40 3-90 0-111-5z" fill="#387adf" class="color000 svgShape"></path></g></svg></g></svg>